<svg xmlns="http://www.w3.org/2000/svg" width="698" height="637" viewBox="0 0 378.934 345.723" shape-rendering="geometricPrecision" image-rendering="optimizeQuality" fill-rule="evenodd" xmlns:v="https://vecta.io/nano"><path d="M0 182.323l88.699-55.89 93.292 48.004-84.605 49.69L0 182.323z" fill="#be4397"/><path d="M97.386 224.127L0 182.323l4.158 100.823 99.615 50.96-6.387-109.979z" fill="red"/><path d="M103.773 334.106l-6.387-109.979 84.606-49.69 4.902 100.233-83.121 59.436zm239.976 11.617l35.185-84.018-2.209-106.618-34.364 79.529 1.388 111.107z" fill="#77405f"/><path d="M212.565 319.941l-4.775-114.012 134.571 28.687 1.388 111.107-131.184-25.782z" fill="red"/><path d="M342.361 234.616L207.79 205.929l40.859-77.472 128.076 26.63-34.364 79.529z" fill="#be4397"/><path d="M98.584 162.463L89.527 47.095l74.813 62.273 10.399 123.442-76.155-70.347z" fill="red"/><path d="M286.594 63.44L164.34 109.368l10.399 123.442 115.468-48.309-3.613-121.061z" fill="#77405f"/><path d="M164.34 109.368L89.527 47.095 205.107 0l81.487 63.44-122.254 45.928z" fill="#be4397"/></svg>