<?xml version="1.0" encoding="UTF-8"?>
<!DOCTYPE svg PUBLIC "-//W3C//DTD SVG 1.0//EN" "http://www.w3.org/TR/2001/REC-SVG-20010904/DTD/svg10.dtd">
<!-- Creator: CorelDRAW -->
<svg xmlns="http://www.w3.org/2000/svg" xml:space="preserve" width="719px" height="612px" version="1.0" style="shape-rendering:geometricPrecision; text-rendering:geometricPrecision; image-rendering:optimizeQuality; fill-rule:evenodd; clip-rule:evenodd"
viewBox="0 0 115.855 98.592"
 xmlns:xlink="http://www.w3.org/1999/xlink"
 xmlns:xodm="http://www.corel.com/coreldraw/odm/2003">
 <defs>
  <style type="text/css">
   <![CDATA[
    .str0 {stroke:white;stroke-width:0.161;stroke-miterlimit:22.9256}
    .str1 {stroke:black;stroke-width:1.611;stroke-linecap:round;stroke-linejoin:round;stroke-miterlimit:22.9256}
    .fil1 {fill:none}
    .fil2 {fill:black}
    .fil3 {fill:red}
    .fil0 {fill:white}
   ]]>
  </style>
 </defs>
 <g id="Layer_x0020_1">
  <metadata id="CorelCorpID_0Corel-Layer"/>
  <g id="_1777435559104">
   <path class="fil0 str0" d="M81.797 27.746c0,0 2.975,-3.674 3.757,-4.74 0.782,-1.066 1.849,-2.701 2.488,-4.479 0.64,-1.777 3.199,-6.326 3.91,-7.535 0.711,-1.208 2.133,-5.9 2.631,-6.824 0.497,-0.925 1.35,-2.346 1.919,-2.062 0.569,0.284 2.915,3.91 4.052,6.469 1.137,2.559 2.204,6.682 2.015,9.926 -0.189,3.243 -1.584,6.486 -2.15,9.843 -0.565,3.356 -2.69,6.669 -2.69,6.669 0,0 1.551,-0.745 3.039,0.744 1.489,1.488 3.412,5.21 4.59,6.637 1.179,1.426 1.055,1.24 2.729,5.768 1.675,4.528 2.481,10.358 2.295,12.343 -0.186,1.985 -0.186,9.118 -0.558,11.04 -0.372,1.923 -0.868,2.295 -1.24,5.334 -0.373,3.04 -2.527,11.035 -3.22,13.033 -0.693,1.999 -3.344,5.71 -4.894,6.933 -4.721,2.903 -39.303,1.626 -57.715,-0.875 -11.714,-1.591 -21.757,-7.114 -25.063,-8.11 -3.46,-0.988 -6.408,-10.613 -6.38,-15.333 0.017,-2.794 -0.694,-4.733 -0.743,-7.567 -0.071,-4.167 -0.139,-7.709 0.695,-11.181 0.833,-3.473 0.625,-6.181 3.611,-13.751 2.986,-7.57 7.57,-7.986 7.57,-7.986 0,0 -1.84,-4.516 -3.52,-6.929 -1.68,-2.413 -2.26,-6.629 -2.26,-6.629 0,0 -0.849,-11.226 1.886,-15.414 2.736,-4.189 5.227,-1.373 5.788,-0.916 0.56,0.457 2.521,2.815 3.158,4.114 0.637,1.3 3.212,5.888 4.512,7.112 1.299,1.223 8.208,7.638 10.163,9.053 1.955,1.416 4.31,6.158 4.31,6.158 -0.264,-1.162 -0.986,-3.024 -0.842,-4.196 0.144,-1.171 3.121,-16.954 5.655,-19.066 2.534,-2.112 8.077,-0.845 12.301,-1.162 4.223,-0.316 4.064,0.845 5.859,0.951 1.795,0.105 3.115,-1.056 4.488,-0.739 1.372,0.316 7.39,5.807 8.288,7.179 0.897,1.373 0.888,13.409 -0.434,16.188z"/>
   <path class="fil1 str1" d="M17.692 87.86c-3.46,-0.988 -6.408,-10.613 -6.38,-15.333 0.017,-2.794 -0.694,-4.733 -0.743,-7.567 -0.071,-4.167 -0.139,-7.709 0.695,-11.181 0.833,-3.473 0.625,-6.181 3.611,-13.751 2.986,-7.57 7.57,-7.986 7.57,-7.986 0,0 -1.84,-4.516 -3.52,-6.929 -1.68,-2.413 -2.26,-6.629 -2.26,-6.629 0,0 -0.849,-11.226 1.886,-15.414 2.736,-4.189 5.227,-1.373 5.788,-0.916 0.56,0.457 2.521,2.815 3.158,4.114 0.637,1.3 3.212,5.888 4.512,7.112 1.299,1.223 8.208,7.638 10.163,9.053 1.955,1.416 4.31,6.158 4.31,6.158"/>
   <path class="fil1 str1" d="M100.47 96.845c1.55,-1.223 4.201,-4.934 4.894,-6.933 0.693,-1.998 2.847,-9.993 3.22,-13.033 0.372,-3.039 0.868,-3.411 1.24,-5.334 0.372,-1.922 0.372,-9.055 0.558,-11.04 0.186,-1.985 -0.62,-7.815 -2.295,-12.343 -1.674,-4.528 -1.55,-4.342 -2.729,-5.768 -1.178,-1.427 -3.101,-5.149 -4.59,-6.637 -1.488,-1.489 -3.039,-0.744 -3.039,-0.744 0,0 2.125,-3.313 2.69,-6.669 0.566,-3.357 1.961,-6.6 2.15,-9.843 0.189,-3.244 -0.878,-7.367 -2.015,-9.926 -1.137,-2.559 -3.483,-6.185 -4.052,-6.469 -0.569,-0.284 -1.422,1.137 -1.919,2.062 -0.498,0.924 -1.92,5.616 -2.631,6.824 -0.711,1.209 -3.27,5.758 -3.91,7.535 -0.639,1.778 -1.706,3.413 -2.488,4.479 -0.782,1.066 -3.757,4.74 -3.757,4.74"/>
   <path class="fil1 str1" d="M67.96 53.49c0.038,0.414 5.648,3.69 14.987,3.803 9.338,0.113 13.555,-2.034 13.555,-2.034 0,0 3.69,-1.694 0.264,-3.276 -3.427,-1.581 -7.343,-4.217 -14.535,-4.593 -7.192,-0.377 -14.271,6.1 -14.271,6.1z"/>
   <path class="fil1 str1" d="M56.183 51.781c0.076,1.136 -6.211,5.604 -17.571,5.983 -11.361,0.378 -15.072,-2.045 -15.147,-3.257 -0.076,-1.212 4.468,-8.558 14.314,-9.77 9.846,-1.212 18.328,5.226 18.404,7.044z"/>
   <path class="fil1 str1" d="M37.271 71.284c0.458,6.815 19.7,16.436 23.995,1.546"/>
   <path class="fil1 str1" d="M81.253 67.333c-0.859,4.295 -6.529,11.682 -12.427,11.74 -5.899,0.057 -5.498,-1.833 -7.56,-6.243"/>
   <path class="fil1 str1" d="M61.266 72.83l0.115 -4.123"/>
   <path class="fil2 str1" d="M61.381 68.707l-3.322 -4.982 6.643 0 -3.321 4.982z"/>
   <path class="fil1 str1" d="M33.418 28.198l-8.485 -2.783"/>
   <path class="fil1 str1" d="M33.646 23.454c-1.871,-0.046 -5.155,-3.421 -6.797,-4.151"/>
   <path class="fil1 str1" d="M31.821 17.569c-4.334,-0.182 -1.962,-1.825 -5.429,-3.512"/>
   <path class="fil1 str1" d="M88.93 29.374c2.173,-1 4.588,-1.552 6.692,-0.931"/>
   <path class="fil1 str1" d="M86.929 27.581c2.794,-2.863 7.382,-4.726 9.624,-5.037"/>
   <path class="fil1 str1" d="M85.067 26.925c2.518,-3.967 8.071,-10.624 11.176,-12.487"/>
   <path class="fil1 str1" d="M89.738 70.269c6.389,-3.396 15.931,-3.154 25.311,-7.278"/>
   <path class="fil1 str1" d="M89.9 78.356c12.372,1.294 21.187,3.234 23.289,4.69"/>
   <path class="fil1 str1" d="M87.151 84.987c5.579,1.536 4.771,-0.162 9.218,1.213 4.448,1.374 16.011,10.027 16.011,10.027"/>
   <path class="fil1 str1" d="M22.172 80.347c-5.626,0.757 -4.436,3.786 -20.934,5.03"/>
   <path class="fil1 str1" d="M19.575 72.882c-6.328,-0.054 -15.524,-3.84 -18.174,-5.409"/>
   <path class="fil1 str1" d="M21.631 66.391c-9.737,-4.002 -17.418,-8.438 -20.825,-15.578"/>
   <path class="fil2 str1" d="M40.005 57.075c-1.301,0.407 -2.363,0.128 -3.639,0.295 -1.082,-4.233 -1.129,-7.949 -0.376,-11.712 1.392,-0.56 3.308,-0.513 3.935,-0.52 1.326,4.183 1.139,8.449 0.08,11.937z"/>
   <path class="fil2 str1" d="M84.81 56.602c-0.255,0.549 -3.619,0.228 -3.887,-0.013 -0.504,-2.315 -0.641,-7.168 -0.504,-8.428 0.286,-0.447 3.885,-0.421 4.184,0 0.327,1.306 0.978,6.512 0.207,8.441z"/>
   <path class="fil0" d="M38.778 47.019c0.098,0.391 0.147,2.429 0.375,2.234 0.229,-0.196 0.767,-0.245 0.734,-0.62 -0.033,-0.375 -0.212,-1.484 -0.31,-1.549 -0.098,-0.065 -0.799,-0.065 -0.799,-0.065z"/>
   <path class="fil0" d="M83.491 49.211c-0.021,0.244 0.191,3.211 0.191,3.318 0,0.106 0.572,0.021 0.572,0.021 0,0 0.212,-0.574 0.149,-1.946 -0.064,-1.372 -0.297,-1.404 -0.297,-1.404l-0.615 0.011z"/>
   <path class="fil3" d="M81.947 28.028c-2.037,-1.054 -7.404,-2.526 -10.355,-2.737 -2.95,-0.211 -5.199,0.914 -7.447,1.124 -2.248,0.211 -8.712,-0.14 -10.398,0.141 -1.686,0.281 -4.075,1.265 -6.965,2.599 -0.414,-1.445 -1.136,-3.307 -0.992,-4.478 0.144,-1.172 3.121,-16.955 5.655,-19.066 2.534,-2.112 8.077,-0.845 12.301,-1.162 4.223,-0.316 4.064,0.845 5.859,0.951 1.795,0.105 3.115,-1.056 4.488,-0.739 1.372,0.316 7.39,5.807 8.288,7.179 0.897,1.373 0.888,13.409 -0.434,16.188z"/>
   <path class="fil3" d="M46.782 29.155c2.74,-1.616 5.129,-2.6 6.815,-2.881 1.686,-0.281 8.15,0.07 10.398,-0.141 2.248,-0.21 4.497,-1.334 7.447,-1.124 2.951,0.211 8.318,1.683 10.355,2.737 0,0 -4.327,6.488 -5.28,7.787 -0.952,1.299 -2.814,1.732 -4.286,1.125 -1.472,-0.606 -4.937,-2.294 -7.838,-2.208 -2.901,0.087 -6.443,2.173 -7.718,2.607 -1.274,0.435 -2.404,-0.087 -3.417,-1.129 -1.014,-1.043 -5.81,-6.02 -6.476,-6.773z"/>
   <path class="fil1 str1" d="M46.782 29.155c2.74,-1.616 5.129,-2.6 6.815,-2.881 1.686,-0.281 8.15,0.07 10.398,-0.141 2.248,-0.21 4.497,-1.334 7.447,-1.124 2.951,0.211 8.318,1.683 10.355,2.737"/>
   <path class="fil1 str1" d="M46.482 28.591c-0.264,-1.162 -0.986,-3.024 -0.842,-4.196 0.144,-1.171 3.121,-16.954 5.655,-19.066 2.534,-2.112 8.077,-0.845 12.301,-1.162 4.223,-0.316 4.064,0.845 5.859,0.951 1.795,0.105 3.115,-1.056 4.488,-0.739 1.372,0.316 7.39,5.807 8.288,7.179 0.897,1.373 0.888,13.409 -0.434,16.188"/>
   <path class="fil1 str1" d="M46.782 29.155c0.666,0.753 5.462,5.73 6.476,6.773 1.013,1.042 2.143,1.564 3.417,1.129 1.275,-0.434 4.817,-2.52 7.718,-2.607 2.901,-0.086 6.366,1.602 7.838,2.208 1.472,0.607 3.334,0.174 4.286,-1.125 0.953,-1.299 5.28,-7.787 5.28,-7.787"/>
  </g>
 </g>
</svg>
