<?xml version="1.0" encoding="UTF-8"?>
<!DOCTYPE svg PUBLIC "-//W3C//DTD SVG 1.0//EN" "http://www.w3.org/TR/2001/REC-SVG-20010904/DTD/svg10.dtd">
<!-- Creator: CorelDRAW -->
<svg xmlns="http://www.w3.org/2000/svg" xml:space="preserve" width="512px" height="164px" version="1.0" style="shape-rendering:geometricPrecision; text-rendering:geometricPrecision; image-rendering:optimizeQuality; fill-rule:evenodd; clip-rule:evenodd"
viewBox="0 0 219.042 70.208"
 xmlns:xlink="http://www.w3.org/1999/xlink"
 xmlns:xodm="http://www.corel.com/coreldraw/odm/2003">
 <defs>
  <style type="text/css">
   <![CDATA[
    .str0 {stroke:white;stroke-width:0.115;stroke-miterlimit:22.9256}
    .str1 {stroke:black;stroke-width:1.147;stroke-linecap:round;stroke-linejoin:round;stroke-miterlimit:22.9256}
    .fil1 {fill:none}
    .fil4 {fill:black}
    .fil2 {fill:black}
    .fil3 {fill:red}
    .fil0 {fill:white}
   ]]>
  </style>
 </defs>
 <g id="Layer_x0020_1">
  <metadata id="CorelCorpID_0Corel-Layer"/>
  <g id="_1777575659008">
   <path class="fil0 str0" d="M58.248 19.758c0,0 2.118,-2.616 2.675,-3.375 0.557,-0.76 1.316,-1.924 1.772,-3.19 0.456,-1.265 2.278,-4.505 2.784,-5.366 0.506,-0.86 1.519,-4.201 1.873,-4.859 0.355,-0.658 0.962,-1.671 1.367,-1.468 0.405,0.202 2.076,2.784 2.885,4.606 0.81,1.823 1.57,4.759 1.435,7.068 -0.134,2.31 -1.127,4.619 -1.53,7.01 -0.403,2.39 -1.916,4.748 -1.916,4.748 0,0 1.104,-0.53 2.164,0.53 1.06,1.06 2.429,3.711 3.269,4.726 0.839,1.016 0.751,0.884 1.943,4.108 1.193,3.224 1.767,7.376 1.634,8.79 -0.132,1.413 -0.132,6.492 -0.397,7.861 -0.265,1.37 -0.619,1.635 -0.884,3.799 -0.265,2.164 -1.798,7.858 -2.292,9.281 -0.494,1.423 -2.382,4.065 -3.485,4.937 -3.362,2.067 -27.988,1.157 -41.099,-0.624 -8.342,-1.133 -15.494,-5.065 -17.848,-5.775 -2.463,-0.704 -4.563,-7.557 -4.542,-10.919 0.012,-1.989 -0.495,-3.37 -0.53,-5.388 -0.05,-2.967 -0.099,-5.489 0.495,-7.962 0.593,-2.473 0.445,-4.401 2.572,-9.792 2.126,-5.39 5.39,-5.687 5.39,-5.687 0,0 -1.31,-3.216 -2.506,-4.934 -1.197,-1.719 -1.61,-4.72 -1.61,-4.72 0,0 -0.604,-7.994 1.343,-10.977 1.948,-2.982 3.723,-0.977 4.122,-0.652 0.398,0.326 1.795,2.004 2.249,2.93 0.453,0.925 2.287,4.193 3.212,5.064 0.926,0.871 5.845,5.439 7.237,6.447 1.393,1.008 3.07,4.384 3.07,4.384 -0.188,-0.827 -0.702,-2.153 -0.6,-2.987 0.103,-0.834 2.223,-12.074 4.027,-13.577 1.805,-1.504 5.752,-0.602 8.759,-0.827 3.008,-0.226 2.895,0.601 4.173,0.676 1.278,0.076 2.218,-0.752 3.196,-0.526 0.977,0.226 5.262,4.135 5.902,5.113 0.639,0.977 0.632,9.548 -0.309,11.527z"/>
   <path class="fil1 str1" d="M12.598 62.565c-2.463,-0.704 -4.563,-7.557 -4.542,-10.919 0.012,-1.989 -0.495,-3.37 -0.53,-5.388 -0.05,-2.967 -0.099,-5.489 0.495,-7.962 0.593,-2.473 0.445,-4.401 2.572,-9.792 2.126,-5.39 5.39,-5.687 5.39,-5.687 0,0 -1.31,-3.216 -2.506,-4.934 -1.197,-1.719 -1.61,-4.72 -1.61,-4.72 0,0 -0.604,-7.994 1.343,-10.977 1.948,-2.982 3.723,-0.977 4.122,-0.652 0.398,0.326 1.795,2.004 2.249,2.93 0.453,0.925 2.287,4.193 3.212,5.064 0.926,0.871 5.845,5.439 7.237,6.447 1.393,1.008 3.07,4.384 3.07,4.384"/>
   <path class="fil1 str1" d="M71.545 68.964c1.103,-0.872 2.991,-3.514 3.485,-4.937 0.494,-1.423 2.027,-7.117 2.292,-9.281 0.265,-2.164 0.619,-2.429 0.884,-3.799 0.265,-1.369 0.265,-6.448 0.397,-7.861 0.133,-1.414 -0.441,-5.566 -1.634,-8.79 -1.192,-3.224 -1.104,-3.092 -1.943,-4.108 -0.84,-1.015 -2.209,-3.666 -3.269,-4.726 -1.06,-1.06 -2.164,-0.53 -2.164,-0.53 0,0 1.513,-2.358 1.916,-4.748 0.403,-2.391 1.396,-4.7 1.53,-7.01 0.135,-2.309 -0.625,-5.245 -1.435,-7.068 -0.809,-1.822 -2.48,-4.404 -2.885,-4.606 -0.405,-0.203 -1.012,0.81 -1.367,1.468 -0.354,0.658 -1.367,3.999 -1.873,4.859 -0.506,0.861 -2.328,4.101 -2.784,5.366 -0.456,1.266 -1.215,2.43 -1.772,3.19 -0.557,0.759 -2.675,3.375 -2.675,3.375"/>
   <path class="fil1 str1" d="M48.394 38.09c0.027,0.295 4.022,2.628 10.672,2.708 6.65,0.081 9.653,-1.448 9.653,-1.448 0,0 2.628,-1.206 0.188,-2.333 -2.44,-1.126 -5.229,-3.003 -10.35,-3.271 -5.122,-0.268 -10.163,4.344 -10.163,4.344z"/>
   <path class="fil1 str1" d="M40.008 36.873c0.054,0.809 -4.423,3.991 -12.512,4.261 -8.09,0.269 -10.733,-1.457 -10.787,-2.319 -0.054,-0.863 3.182,-6.095 10.193,-6.958 7.011,-0.863 13.052,3.722 13.106,5.016z"/>
   <path class="fil1 str1" d="M26.541 50.761c0.326,4.853 14.028,11.704 17.087,1.101"/>
   <path class="fil1 str1" d="M57.86 47.947c-0.611,3.059 -4.649,8.32 -8.849,8.361 -4.201,0.04 -3.915,-1.305 -5.383,-4.446"/>
   <path class="fil1 str1" d="M43.628 51.862l0.081 -2.936"/>
   <path class="fil2 str1" d="M43.709 48.926l-2.365 -3.548 4.731 0 -2.366 3.548z"/>
   <path class="fil1 str1" d="M23.797 20.08l-6.042 -1.982"/>
   <path class="fil1 str1" d="M23.959 16.701c-1.332,-0.032 -3.671,-2.436 -4.84,-2.956"/>
   <path class="fil1 str1" d="M22.66 12.511c-3.086,-0.13 -1.397,-1.299 -3.866,-2.501"/>
   <path class="fil1 str1" d="M63.327 20.917c1.548,-0.712 3.267,-1.105 4.765,-0.663"/>
   <path class="fil1 str1" d="M61.902 19.64c1.99,-2.039 5.257,-3.365 6.854,-3.586"/>
   <path class="fil1 str1" d="M60.576 19.173c1.793,-2.824 5.748,-7.565 7.959,-8.891"/>
   <path class="fil1 str1" d="M63.903 50.039c4.549,-2.419 11.344,-2.246 18.023,-5.183"/>
   <path class="fil1 str1" d="M64.018 55.797c8.81,0.921 15.087,2.303 16.584,3.34"/>
   <path class="fil1 str1" d="M62.06 60.519c3.973,1.094 3.397,-0.115 6.564,0.864 3.168,0.979 11.402,7.14 11.402,7.14"/>
   <path class="fil1 str1" d="M15.788 57.215c-4.006,0.539 -3.158,2.696 -14.906,3.582"/>
   <path class="fil1 str1" d="M13.939 51.899c-4.506,-0.038 -11.054,-2.734 -12.942,-3.851"/>
   <path class="fil1 str1" d="M15.403 47.277c-6.933,-2.85 -12.403,-6.009 -14.829,-11.093"/>
   <path class="fil2 str1" d="M28.488 40.643c-0.927,0.29 -1.683,0.092 -2.592,0.21 -0.77,-3.014 -0.804,-5.66 -0.268,-8.34 0.992,-0.399 2.356,-0.365 2.803,-0.37 0.944,2.978 0.81,6.017 0.057,8.5z"/>
   <path class="fil2 str1" d="M60.393 40.306c-0.181,0.391 -2.577,0.163 -2.768,-0.009 -0.359,-1.648 -0.456,-5.104 -0.359,-6.001 0.204,-0.319 2.767,-0.301 2.98,0 0.232,0.929 0.697,4.636 0.147,6.01z"/>
   <path class="fil0" d="M27.614 33.482c0.07,0.279 0.104,1.73 0.267,1.591 0.163,-0.139 0.546,-0.174 0.523,-0.441 -0.024,-0.267 -0.151,-1.057 -0.221,-1.103 -0.07,-0.047 -0.569,-0.047 -0.569,-0.047z"/>
   <path class="fil0" d="M59.454 35.043c-0.015,0.174 0.136,2.287 0.136,2.363 0,0.075 0.407,0.015 0.407,0.015 0,0 0.151,-0.409 0.106,-1.386 -0.045,-0.977 -0.211,-1 -0.211,-1l-0.438 0.008z"/>
   <path class="fil3" d="M58.355 19.958c-1.451,-0.75 -5.273,-1.798 -7.374,-1.948 -2.101,-0.15 -3.702,0.65 -5.303,0.8 -1.601,0.15 -6.204,-0.1 -7.405,0.1 -1.201,0.201 -2.902,0.901 -4.96,1.851 -0.295,-1.028 -0.808,-2.354 -0.706,-3.189 0.103,-0.834 2.223,-12.073 4.027,-13.577 1.805,-1.503 5.752,-0.601 8.759,-0.827 3.008,-0.225 2.895,0.602 4.173,0.677 1.278,0.075 2.218,-0.752 3.195,-0.526 0.978,0.225 5.263,4.135 5.902,5.112 0.639,0.978 0.633,9.549 -0.308,11.527z"/>
   <path class="fil3" d="M33.313 20.761c1.952,-1.151 3.653,-1.851 4.853,-2.051 1.201,-0.2 5.804,0.05 7.405,-0.1 1.601,-0.15 3.202,-0.951 5.303,-0.801 2.101,0.15 5.923,1.198 7.374,1.949 0,0 -3.082,4.62 -3.76,5.545 -0.678,0.925 -2.004,1.233 -3.052,0.802 -1.049,-0.432 -3.516,-1.635 -5.582,-1.573 -2.065,0.062 -4.588,1.547 -5.496,1.856 -0.907,0.31 -1.711,-0.062 -2.433,-0.804 -0.722,-0.742 -4.137,-4.287 -4.612,-4.823z"/>
   <path class="fil1 str1" d="M33.313 20.761c1.952,-1.151 3.653,-1.851 4.853,-2.051 1.201,-0.2 5.804,0.05 7.405,-0.1 1.601,-0.15 3.202,-0.951 5.303,-0.801 2.101,0.15 5.923,1.198 7.374,1.949"/>
   <path class="fil1 str1" d="M33.1 20.359c-0.188,-0.827 -0.702,-2.153 -0.6,-2.987 0.103,-0.834 2.223,-12.074 4.027,-13.577 1.805,-1.504 5.752,-0.602 8.759,-0.827 3.008,-0.226 2.895,0.601 4.173,0.676 1.278,0.076 2.218,-0.752 3.196,-0.526 0.977,0.226 5.262,4.135 5.902,5.113 0.639,0.977 0.632,9.548 -0.309,11.527"/>
   <path class="fil1 str1" d="M33.313 20.761c0.475,0.536 3.89,4.081 4.612,4.823 0.722,0.742 1.526,1.114 2.433,0.804 0.908,-0.309 3.431,-1.794 5.496,-1.856 2.066,-0.062 4.533,1.141 5.582,1.573 1.048,0.431 2.374,0.123 3.052,-0.802 0.678,-0.925 3.76,-5.545 3.76,-5.545"/>
  </g>
  <g id="_1777575670576">
   <path class="fil4" d="M119.877 12.915c-4.593,-3.683 -17.775,-6.454 -23.205,-3.194 -2.327,1.396 -2.231,3.46 -2.376,5.949 -0.638,10.938 3.831,15.534 13.892,19.206 9.093,3.32 16.482,5.422 12.554,17.279 -4.141,12.502 -10.078,12.733 -21.775,8.83 -3.388,-1.131 -6.551,-2.333 -10.033,-3.211 -0.546,-0.13 -0.884,-0.678 -0.754,-1.224 0.13,-0.546 0.678,-0.883 1.224,-0.754 2.846,0.718 5.397,1.608 8.161,2.563 6.378,2.203 15.226,5.778 19.154,-1.878 2.05,-3.996 4.911,-10.801 1.261,-14.666 -3.055,-3.234 -12.275,-5.164 -16.962,-7.905 -7.984,-4.67 -9.882,-12.917 -8.435,-21.532 0.667,-3.97 4.147,-5.396 7.771,-5.882 6.389,-0.856 15.953,0.937 20.961,4.982 0.396,0.397 0.396,1.04 0,1.437 -0.397,0.397 -1.041,0.397 -1.438,0z"/>
  </g>
  <path class="fil1" d="M120.596 12.197c-4.379,-4.38 -25.797,-8.478 -27.006,0.32 -4.77,34.692 39.032,14.197 24.039,44.415 -5.214,10.508 -18.148,2.303 -28.46,-0.147"/>
  <g id="_1777025688224">
   <path class="fil4" d="M142.202 6.811c-5.929,18.486 -6.929,37.713 -6.967,56.989 0,0.549 -0.444,0.994 -0.993,0.994 -0.548,0 -0.993,-0.445 -0.993,-0.994 0.038,-19.518 1.063,-38.893 7.067,-57.612 0.172,-0.521 0.734,-0.804 1.254,-0.632 0.521,0.173 0.804,0.734 0.632,1.255z"/>
  </g>
  <path class="fil1" d="M141.259 6.499c-5.886,17.803 -7.017,38.525 -7.017,57.301"/>
  <g id="_1777025689376">
   <path class="fil4" d="M132.044 47.838c5.373,-4.405 21.533,-15.708 23.845,-21.316 0.136,-0.531 0.678,-0.851 1.209,-0.715 0.531,0.137 0.851,0.678 0.715,1.21l-0.502 1.242c-2.761,5.362 -18.555,16.646 -23.989,21.1 -0.42,0.353 -1.047,0.298 -1.4,-0.122 -0.352,-0.42 -0.298,-1.047 0.122,-1.399z"/>
  </g>
  <path class="fil1" d="M132.683 48.598c6.383,-5.361 22.864,-16.758 24.168,-21.829"/>
  <g id="_1777025692064">
   <path class="fil4" d="M140.258 42.95c1.026,2.358 5.821,12.766 6.224,14.816 0.353,1.797 0.352,1.953 0.893,4.036 0.148,0.528 -0.16,1.076 -0.688,1.225 -0.528,0.149 -1.076,-0.159 -1.225,-0.687 -0.418,-1.614 -0.615,-2.17 -0.854,-3.618 -0.416,-2.527 -4.987,-12.256 -6.171,-14.98 -0.219,-0.503 0.011,-1.088 0.514,-1.306 0.503,-0.219 1.089,0.011 1.307,0.514z"/>
  </g>
  <path class="fil1" d="M139.347 43.346c8.806,20.258 4.793,10.624 7.071,18.725"/>
  <g id="_1777025695472">
   <path class="fil4" d="M159.918 63.317c0.982,-17.168 4.344,-33.204 4.319,-50.737 -0.004,-2.367 -0.071,-4.693 -0.184,-7.057 -0.029,-0.572 0.391,-1.06 0.938,-1.091 0.548,-0.031 1.016,0.408 1.046,0.98 0.131,2.738 0.198,5.428 0.184,8.171 -0.088,17.204 -3.356,32.999 -4.319,49.845 -0.029,0.572 -0.497,1.011 -1.044,0.981 -0.548,-0.031 -0.969,-0.519 -0.94,-1.092z"/>
  </g>
  <path class="fil1" d="M160.91 63.373c0.858,-16.831 5.269,-35.921 4.135,-57.905"/>
  <g id="_1777025666288">
   <path class="fil4" d="M171.851 43.603c1.829,-8.261 2.993,-11.873 12.568,-10.866 4.975,0.523 7.351,2.158 8.374,7.514 1.487,7.79 -1.407,16.449 -1.827,24.223 0,0.549 -0.445,0.993 -0.993,0.993 -0.549,0 -0.994,-0.444 -0.994,-0.993 0.391,-7.361 3.239,-16.638 1.862,-23.854 -0.858,-4.495 -2.557,-5.479 -6.634,-5.908 -8.34,-0.878 -8.785,1.952 -10.415,9.314 -0.117,0.536 -0.646,0.876 -1.182,0.759 -0.536,-0.117 -0.876,-0.646 -0.759,-1.182z"/>
  </g>
  <path class="fil1" d="M172.821 43.815c1.829,-8.393 2.732,-11.443 13.376,-9.846 10.706,1.607 3.776,23.949 3.776,30.505"/>
  <g id="_1777025668832">
   <path class="fil4" d="M192.328 49.651c-6.199,3.401 -8.744,2.987 -15.36,3.649 -2.385,0.239 -4.798,0.994 -5.098,3.811 -0.369,3.46 8.889,4.661 11.096,4.741 2.545,0.093 4.422,-0.066 6.799,-0.973 0.495,-0.237 1.088,-0.027 1.324,0.468 0.237,0.495 0.027,1.088 -0.468,1.324 -2.267,0.869 -3.542,1.106 -5.995,1.176 -3.95,0.112 -16.388,-1.38 -14.598,-7.622 1.031,-3.593 3.32,-4.558 6.754,-4.903 6.242,-0.626 8.698,-0.179 14.552,-3.391 0.475,-0.274 1.082,-0.112 1.357,0.363 0.274,0.474 0.112,1.082 -0.363,1.357z"/>
  </g>
  <path class="fil1" d="M191.831 48.791c-10.755,6.222 -18.715,0.334 -20.849,7.71 -1.585,5.48 13.594,7.958 19.211,5.274"/>
  <g id="_1777025668064">
   <path class="fil4" d="M214.937 43.953c-3.25,-2.081 -6.924,-3.546 -9.928,-0.096 -2.332,2.677 -3.891,10.392 -1.284,12.914 2.938,2.842 9.467,1.235 13.021,0.665 0.547,0.043 0.955,0.521 0.912,1.068 -0.043,0.547 -0.521,0.955 -1.068,0.912 -4.16,1.132 -12.639,2.149 -15.175,-2.382 -2.25,-4.018 -0.645,-12.384 3.113,-15.478 3.839,-3.16 7.901,-1.562 11.57,0.785 0.445,0.321 0.546,0.942 0.225,1.387 -0.32,0.445 -0.941,0.546 -1.386,0.225z"/>
  </g>
  <path class="fil1" d="M215.517 43.147c-8.295,-5.976 -14.644,0.222 -14.032,10.658 0.514,8.772 14.703,4.583 15.183,4.621"/>
  <g id="_1777025669408">
   <path class="fil4" d="M219.032 6.627c-1.887,15.2 -1.888,26.133 -1.555,41.287 0.113,5.154 0.19,10.274 0.201,15.431 0,0.622 -0.445,1.127 -0.993,1.127 -0.549,0 -0.993,-0.505 -0.993,-1.127 -0.011,-5.139 -0.088,-10.239 -0.201,-15.375 -0.336,-15.286 -0.329,-26.334 1.575,-41.667 0.079,-0.616 0.583,-1.043 1.126,-0.953 0.543,0.089 0.919,0.661 0.84,1.277z"/>
  </g>
  <path class="fil1" d="M218.049 6.465c-2.943,22.954 -1.364,33.784 -1.364,56.88"/>
 </g>
</svg>
