<?xml version="1.0" encoding="UTF-8"?>
<!DOCTYPE svg PUBLIC "-//W3C//DTD SVG 1.0//EN" "http://www.w3.org/TR/2001/REC-SVG-20010904/DTD/svg10.dtd">
<!-- Creator: CorelDRAW -->
<svg xmlns="http://www.w3.org/2000/svg" xml:space="preserve" width="16px" height="16px" version="1.0" style="shape-rendering:geometricPrecision; text-rendering:geometricPrecision; image-rendering:optimizeQuality; fill-rule:evenodd; clip-rule:evenodd"
viewBox="0 0 16 16"
 xmlns:xlink="http://www.w3.org/1999/xlink"
 xmlns:xodm="http://www.corel.com/coreldraw/odm/2003">
 <defs>
  <style type="text/css">
   <![CDATA[
    .str1 {stroke:black;stroke-width:0.5;stroke-miterlimit:22.9256}
    .str0 {stroke:black;stroke-width:0.3;stroke-miterlimit:22.9256}
    .fil1 {fill:none}
    .fil0 {fill:black}
    .fil2 {fill:black}
   ]]>
  </style>
 </defs>
 <g id="Layer_x0020_1">
  <metadata id="CorelCorpID_0Corel-Layer"/>
  <g>
   <path class="fil0" d="M-24.479 13.472l10.001 0c0.413,0 0.789,-0.168 1.059,-0.439l0.002 -0.002c0.27,-0.27 0.439,-0.646 0.439,-1.059l0 -10c0,-0.412 -0.17,-0.787 -0.441,-1.059l0 -0.002c-0.27,-0.27 -0.646,-0.439 -1.059,-0.439l-10.001 0c-0.413,0 -0.788,0.169 -1.058,0.439l0 0.002c-0.272,0.272 -0.441,0.647 -0.441,1.059l0 10c0,0.413 0.168,0.789 0.439,1.059l0.002 0.002c0.27,0.271 0.645,0.439 1.058,0.439zm0 0.5l10.001 0c1.1,0 2,-0.9 2,-2l0 -10c0,-1.1 -0.9,-2 -2,-2l-10.001 0c-1.1,0 -1.999,0.9 -1.999,2l0 10c0,1.1 0.899,2 1.999,2z"/>
  </g>
  <g>
   <path class="fil0" d="M27.05 14.5l13 0 0 -13 -13 0 0 13zm-0.5 0.5l14 0 0 -14 -14 0 0 14z"/>
  </g>
  <rect class="fil1 str0" x="25.55" width="16" height="16"/>
  <path class="fil2" d="M-20.478 -0.028l-4 0c-1.1,0 -2,0.9 -2,2l0 10c0,1.1 0.9,2 2,2l4 0 0 -14z"/>
  <g>
   <path class="fil0" d="M48.254 14.5l13 0 0 -13 -13 0 0 13zm-0.5 0.5l14 0 0 -14 -14 0 0 14z"/>
  </g>
  <rect class="fil1 str0" x="46.754" width="16" height="16"/>
  <g>
   <path class="fil0" d="M53.754 1l2 0 0 14 -2 0 0 -14z"/>
  </g>
  <g>
   <path class="fil0" d="M14.5 35.611l0 -13 -13 0 0 13 13 0zm0.5 0.5l0 -14 -14 0 0 14 14 0z"/>
  </g>
  <rect class="fil1 str0" transform="matrix(2.64845E-14 -1 1 2.64845E-14 -2.11386E-13 37.1114)" width="16" height="16"/>
  <g>
   <path class="fil0" d="M1.5 30.611l0 5 13 0 0 -5 -13 0zm-0.5 -0.5l0 6 14 0 0 -6 -14 0z"/>
  </g>
  <g>
   <path class="fil0" d="M29.564 35.225l13 0 0 -13 -13 0 0 13zm-0.5 0.5l14 0 0 -14 -14 0 0 14z"/>
  </g>
  <rect class="fil1 str0" x="28.064" y="20.725" width="16" height="16"/>
  <g>
   <path class="fil0" d="M34.564 22.225l-5 0 0 13 5 0 0 -13zm0.5 -0.5l-6 0 0 14 6 0 0 -14z"/>
  </g>
  <g>
   <path class="fil0" d="M-22.394 35.317l10.001 0c0.413,0 0.788,-0.168 1.058,-0.439l0.002 -0.002c0.271,-0.27 0.439,-0.645 0.439,-1.058l0 -10.001c0,-0.412 -0.169,-0.787 -0.441,-1.059l0 -0.002c-0.27,-0.27 -0.645,-0.439 -1.058,-0.439l-10.001 0c-0.413,0 -0.789,0.169 -1.059,0.439l0 0.002c-0.271,0.272 -0.441,0.647 -0.441,1.059l0 10.001c0,0.413 0.169,0.788 0.439,1.058l0.002 0.002c0.27,0.271 0.646,0.439 1.059,0.439zm0 0.5l10.001 0c1.1,0 1.999,-0.899 1.999,-1.999l0 -10.001c0,-1.1 -0.899,-2 -1.999,-2l-10.001 0c-1.1,0 -2,0.9 -2,2l0 10.001c0,1.1 0.9,1.999 2,1.999z"/>
  </g>
  <rect class="fil1 str0" x="-25.394" y="20.817" width="16" height="16"/>
  <path class="fil1 str1" d="M-18.539 35.817l0 -14"/>
  <rect class="fil1 str0" x="-27.478" y="-1.028" width="16" height="16"/>
  <g>
   <path class="fil0" d="M3 14.5l10 0c0.413,0 0.789,-0.169 1.059,-0.439l0.002 -0.002c0.27,-0.27 0.439,-0.646 0.439,-1.059l0 -10c0,-0.412 -0.169,-0.787 -0.441,-1.059l0 -0.002c-0.27,-0.27 -0.646,-0.439 -1.059,-0.439l-10 0c-0.413,0 -0.789,0.169 -1.059,0.439l0 0.002c-0.272,0.272 -0.441,0.647 -0.441,1.059l0 10c0,0.413 0.169,0.789 0.439,1.059l0.002 0.002c0.27,0.27 0.646,0.439 1.059,0.439zm0 0.5l10 0c1.1,0 2,-0.9 2,-2l0 -10c0,-1.1 -0.9,-2 -2,-2l-10 0c-1.1,0 -2,0.9 -2,2l0 10c0,1.1 0.9,2 2,2z"/>
  </g>
  <path class="fil1 str1" d="M6.854 14.75l0 -13.5"/>
 </g>
</svg>
