<?xml version="1.0" encoding="UTF-8"?>
<!DOCTYPE svg PUBLIC "-//W3C//DTD SVG 1.0//EN" "http://www.w3.org/TR/2001/REC-SVG-20010904/DTD/svg10.dtd">
<!-- Creator: CorelDRAW -->
<svg xmlns="http://www.w3.org/2000/svg" xml:space="preserve" width="989px" height="162px" version="1.0" style="shape-rendering:geometricPrecision; text-rendering:geometricPrecision; image-rendering:optimizeQuality; fill-rule:evenodd; clip-rule:evenodd"
viewBox="0 0 531.913 87.109"
 xmlns:xlink="http://www.w3.org/1999/xlink"
 xmlns:xodm="http://www.corel.com/coreldraw/odm/2003">
 <defs>
  <style type="text/css">
   <![CDATA[
    .str0 {stroke:black;stroke-width:0.538;stroke-linecap:round;stroke-linejoin:round;stroke-miterlimit:22.9256}
    .str1 {stroke:black;stroke-width:0.538;stroke-linecap:round;stroke-linejoin:round;stroke-miterlimit:22.9256}
    .str2 {stroke:white;stroke-width:0.538;stroke-linecap:round;stroke-linejoin:round;stroke-miterlimit:22.9256}
    .fil3 {fill:none}
    .fil4 {fill:black}
    .fil5 {fill:#E6E6E6}
    .fil1 {fill:#FF99CC}
    .fil2 {fill:#FF99CC}
    .fil0 {fill:white}
    .fil6 {fill:black;fill-rule:nonzero}
   ]]>
  </style>
 </defs>
 <g id="Layer_x0020_1">
  <metadata id="CorelCorpID_0Corel-Layer"/>
  <g id="_2997784761552">
   <path class="fil0 str0" d="M28.525 85.424c-23.51,-4.065 -33.404,-22.581 -25.668,-43.513 3.054,-8.272 19.863,-27.058 42.905,-27.058 23.042,0 39.851,18.786 42.905,27.058 7.736,20.932 -2.158,39.448 -25.668,43.513 -12.237,2.008 -22.246,1.767 -34.474,0z"/>
   <ellipse class="fil1" cx="72.643" cy="53.916" rx="2.869" ry="1.586"/>
   <ellipse class="fil1" cx="18.915" cy="53.916" rx="2.869" ry="1.586"/>
   <path class="fil2" d="M42.346 63.705c-0.16,0.326 -0.248,0.682 -0.248,1.054 0,1.609 1.648,2.914 3.68,2.914 2.033,0 3.68,-1.305 3.68,-2.914 0,-0.372 -0.088,-0.728 -0.248,-1.054 -1.06,-0.281 -2.2,-0.883 -3.432,-1.861 -1.232,0.978 -2.372,1.58 -3.432,1.861z"/>
   <path class="fil3 str0" d="M12.224 60.4l-7.538 -1.625"/>
   <path class="fil3 str0" d="M10.825 61.122l-5.642 0"/>
   <path class="fil3 str0" d="M12.224 61.844l-7.538 1.625"/>
   <path class="fil3 str0" d="M79.333 60.4l7.538 -1.625"/>
   <path class="fil3 str0" d="M80.732 61.122l5.642 0"/>
   <path class="fil3 str0" d="M79.333 61.844l7.538 1.625"/>
   <circle class="fil4 str1" transform="matrix(0.987734 -0.156149 0.156149 0.987734 24.3568 48.4733)" r="5.443"/>
   <circle class="fil4 str1" transform="matrix(0.987734 -0.156149 0.156149 0.987734 67.2 48.4732)" r="5.443"/>
   <circle class="fil0" transform="matrix(0.74228 0.74228 -0.74228 0.74228 25.8447 45.9963)" r="1.891"/>
   <circle class="fil0 str2" transform="matrix(0.76784 0.76784 -0.76784 0.76784 21.5046 50.8737)" r="0.928"/>
   <circle class="fil0" transform="matrix(0.954934 0.954934 -0.954934 0.954934 23.1391 52.767)" r="0.486"/>
   <circle class="fil0" transform="matrix(0.74228 0.74228 -0.74228 0.74228 68.6879 45.9963)" r="1.891"/>
   <circle class="fil0 str2" transform="matrix(0.76784 0.76784 -0.76784 0.76784 64.3478 50.8737)" r="0.928"/>
   <circle class="fil0" transform="matrix(0.954934 0.954934 -0.954934 0.954934 65.9823 52.767)" r="0.486"/>
   <path class="fil3 str0" d="M36.7 61.844c2.416,2.469 5.314,2.985 9.078,0"/>
   <path class="fil3 str0" d="M54.857 61.844c-2.416,2.469 -5.314,2.985 -9.079,0"/>
   <path class="fil3 str0" d="M45.778 61.844l0 2.632"/>
   <ellipse class="fil1" cx="45.778" cy="57.088" rx="2.869" ry="1.586"/>
   <g>
    <path class="fil5 str0" d="M62.407 3.486c-3.768,-0.96 -7.867,-1.605 -12.178,-1.87l0.172 -1.2c-3.075,-0.196 -6.203,-0.196 -9.278,0l0.172 1.2c-4.311,0.265 -8.41,0.91 -12.177,1.87l0.261 1.284c-10.94,2.735 -19.139,8.126 -21.756,14.639l-2.976 7.405 -1.952 0 -1.47 2.335c-0.337,0.382 -0.512,0.773 -0.512,1.172 0,4.279 20.169,7.749 45.049,7.749 24.88,0 45.049,-3.47 45.049,-7.749 0,-0.398 -0.175,-0.79 -0.511,-1.172l-1.471 -2.334 -2.206 0 -2.571 -7.012c-2.423,-6.678 -10.735,-12.24 -21.907,-15.033l0.262 -1.284z"/>
    <path class="fil3 str0" d="M82.417 31.142c0.937,-1.381 1.614,-2.829 1.999,-4.327"/>
    <path class="fil3 str0" d="M7.108 26.814c0.385,1.499 1.062,2.947 1.999,4.328"/>
    <path class="fil3 str0" d="M90.714 29.807c-6.157,1.663 -23.956,2.864 -44.952,2.864 -20.996,0 -38.794,-1.202 -44.952,-2.864"/>
    <path class="fil3 str0" d="M4.647 26.814l2.461 0"/>
    <path class="fil3 str0" d="M86.623 26.815l-2.207 0"/>
    <path class="fil3 str0" d="M33.138 23.258l25.248 0"/>
    <path class="fil3 str0" d="M33.138 23.258l-9.551 8.929"/>
    <path class="fil3 str0" d="M58.386 23.258l9.551 8.929"/>
    <path class="fil3 str0" d="M31.128 13.372l-1.749 -8.602"/>
    <path class="fil3 str0" d="M60.396 13.372l1.749 -8.602"/>
    <path class="fil3 str0" d="M48.538 13.372l1.691 -11.756"/>
    <path class="fil3 str0" d="M42.986 13.372l-1.691 -11.756"/>
   </g>
   <path class="fil6" d="M132.856 25.64c1.295,0 2.357,0.391 3.187,1.171 0.829,0.781 1.41,1.829 1.741,3.143 0.332,1.314 0.426,2.856 0.284,4.627 -0.142,1.772 -0.531,3.628 -1.168,5.571 -0.661,2.019 -1.482,3.885 -2.462,5.599 -0.98,1.714 -2.057,3.199 -3.231,4.456 -1.173,1.257 -2.418,2.238 -3.734,2.942 -1.317,0.705 -2.641,1.057 -3.974,1.057l-11.941 0 -5.764 17.597 -8.855 0 15.12 -46.163 20.797 0zm-19.389 22.739l8.17 0c2.742,0 5.024,-2.781 6.845,-8.342 1.884,-5.751 1.455,-8.626 -1.287,-8.626l-8.17 0 -5.558 16.968z"/>
   <path id="_1" class="fil6" d="M168.131 40.952l-13.369 0c-1.104,0 -2.031,0.066 -2.779,0.2 -0.748,0.133 -1.397,0.428 -1.947,0.885 -0.55,0.457 -1.037,1.133 -1.464,2.028 -0.427,0.895 -0.889,2.105 -1.388,3.628l-7.898 24.11 -8.855 0 8.346 -25.481c1.285,-3.923 3.253,-6.761 5.902,-8.513 2.65,-1.752 6.032,-2.628 10.145,-2.628l15.197 0 -1.89 5.771z"/>
   <path id="_2" class="fil6" d="M194.829 35.181c1.638,0 2.979,0.21 4.022,0.629 1.044,0.419 1.803,1.095 2.278,2.028 0.475,0.933 0.654,2.161 0.536,3.685 -0.118,1.524 -0.539,3.39 -1.263,5.599l-4.154 12.683c-0.736,2.247 -1.535,4.133 -2.396,5.656 -0.861,1.524 -1.834,2.752 -2.921,3.685 -1.086,0.933 -2.298,1.609 -3.635,2.028 -1.337,0.419 -2.824,0.629 -4.462,0.629l-12.226 0c-1.714,0 -3.112,-0.21 -4.194,-0.629 -1.081,-0.419 -1.85,-1.095 -2.306,-2.028 -0.456,-0.933 -0.606,-2.161 -0.45,-3.685 0.156,-1.523 0.603,-3.409 1.338,-5.656l4.155 -12.683c0.724,-2.209 1.506,-4.075 2.348,-5.599 0.842,-1.524 1.797,-2.752 2.864,-3.685 1.067,-0.933 2.279,-1.609 3.635,-2.028 1.356,-0.419 2.891,-0.629 4.605,-0.629l12.226 0zm-20.825 24.51c-0.749,2.285 -1.031,3.932 -0.848,4.942 0.184,1.009 0.923,1.514 2.218,1.514l6.285 0c1.333,0 2.412,-0.505 3.238,-1.514 0.825,-1.01 1.6,-2.619 2.324,-4.828l4.154 -12.683c0.711,-2.171 0.978,-3.742 0.802,-4.714 -0.177,-0.971 -0.933,-1.456 -2.266,-1.456l-6.284 0c-1.295,0 -2.359,0.485 -3.191,1.456 -0.832,0.972 -1.604,2.543 -2.315,4.714l-4.117 12.569z"/>
   <path id="_3" class="fil6" d="M232.035 35.181l-12.856 39.25c-0.699,2.133 -1.457,3.923 -2.273,5.37 -0.817,1.447 -1.75,2.609 -2.799,3.485 -1.048,0.876 -2.232,1.495 -3.55,1.857 -1.319,0.362 -2.835,0.543 -4.549,0.543l-12.283 0 1.871 -5.713 7.199 0c1.257,0 2.301,-0.105 3.131,-0.315 0.83,-0.209 1.517,-0.561 2.06,-1.056 0.543,-0.496 1.012,-1.172 1.407,-2.029 0.395,-0.857 0.811,-1.952 1.248,-3.285l10.592 -32.336 -12.855 0 1.89 -5.771 21.767 0zm4.789 -11.655l-2.32 7.085 -10.455 0 2.32 -7.085 10.455 0z"/>
   <path id="_4" class="fil6" d="M260.785 35.181c2.4,0 4.021,0.867 4.862,2.6 0.842,1.733 0.645,4.485 -0.59,8.255 -1.235,3.771 -2.778,6.475 -4.628,8.113 -1.851,1.638 -4.071,2.457 -6.661,2.457l-13.197 0 -1.067 3.256c-0.449,1.371 -0.745,2.476 -0.886,3.314 -0.141,0.838 -0.112,1.476 0.088,1.914 0.199,0.438 0.572,0.723 1.119,0.857 0.546,0.133 1.258,0.2 2.134,0.2l13.368 0 -1.852 5.656 -17.368 0c-1.676,0 -3.036,-0.21 -4.079,-0.629 -1.044,-0.419 -1.793,-1.095 -2.25,-2.028 -0.456,-0.933 -0.615,-2.161 -0.478,-3.685 0.137,-1.523 0.574,-3.409 1.31,-5.656l4.154 -12.683c0.724,-2.209 1.516,-4.075 2.377,-5.599 0.861,-1.524 1.825,-2.752 2.893,-3.685 1.067,-0.933 2.26,-1.609 3.578,-2.028 1.318,-0.419 2.814,-0.629 4.49,-0.629l12.683 0zm-18.493 16.169l9.598 0c0.61,0 1.152,-0.058 1.628,-0.172 0.475,-0.114 0.908,-0.362 1.3,-0.743 0.391,-0.38 0.759,-0.923 1.105,-1.628 0.345,-0.704 0.71,-1.647 1.097,-2.828 0.375,-1.142 0.623,-2.047 0.746,-2.714 0.123,-0.666 0.117,-1.171 -0.018,-1.513 -0.135,-0.343 -0.406,-0.562 -0.813,-0.657 -0.407,-0.096 -0.953,-0.143 -1.639,-0.143l-6.113 0c-0.685,0 -1.288,0.095 -1.807,0.285 -0.52,0.191 -0.988,0.515 -1.404,0.972 -0.416,0.457 -0.8,1.076 -1.151,1.856 -0.351,0.781 -0.72,1.762 -1.106,2.943l-1.423 4.342z"/>
   <path id="_5" class="fil6" d="M300.505 35.181l-1.89 5.771 -16.397 0c-0.685,0 -1.288,0.095 -1.807,0.285 -0.52,0.191 -0.978,0.515 -1.375,0.972 -0.398,0.457 -0.784,1.085 -1.16,1.885 -0.377,0.8 -0.765,1.809 -1.164,3.028l-4.36 13.312c-0.961,2.932 -0.912,4.703 0.145,5.313 0.509,0.305 2.459,0.457 5.849,0.457 0.609,0 1.403,-0.01 2.38,-0.029 0.978,-0.019 2.209,-0.028 3.695,-0.028l5.941 0 -1.852 5.656 -19.368 0c-1.676,0 -3.045,-0.21 -4.107,-0.629 -1.063,-0.419 -1.822,-1.095 -2.279,-2.028 -0.456,-0.933 -0.615,-2.161 -0.478,-3.685 0.137,-1.523 0.574,-3.409 1.31,-5.656l4.154 -12.683c0.724,-2.209 1.516,-4.075 2.377,-5.599 0.861,-1.524 1.825,-2.752 2.893,-3.685 1.067,-0.933 2.269,-1.609 3.606,-2.028 1.337,-0.419 2.844,-0.629 4.519,-0.629l19.368 0z"/>
   <path id="_6" class="fil6" d="M324.668 25.64l-3.125 9.541 11.483 0 -1.89 5.771 -11.483 0 -6.531 19.939c-0.412,1.256 -0.686,2.237 -0.821,2.942 -0.136,0.705 -0.041,1.228 0.285,1.571 0.326,0.343 0.904,0.552 1.736,0.628 0.832,0.077 2.029,0.115 3.591,0.115l-1.853 5.656 -5.941 0c-1.905,0 -3.42,-0.143 -4.545,-0.429 -1.125,-0.285 -1.931,-0.79 -2.418,-1.514 -0.486,-0.723 -0.667,-1.714 -0.54,-2.971 0.125,-1.256 0.507,-2.856 1.143,-4.799l6.924 -21.138 -8.513 0 1.89 -5.771 8.513 0 3.125 -9.541 8.97 0z"/>
   <path id="_7" class="fil6" d="M361.181 47.465l-1.909 5.827 -28.451 0 1.909 -5.827 28.451 0z"/>
   <path id="_8" class="fil6" d="M399.251 25.64l-1.89 5.771 -15.026 0c-0.647,0 -1.275,0.171 -1.882,0.514 -0.607,0.343 -1.182,0.819 -1.725,1.428 -0.542,0.609 -1.027,1.305 -1.454,2.085 -0.427,0.781 -0.784,1.61 -1.071,2.486 -0.649,1.98 -0.811,3.58 -0.487,4.799 0.325,1.219 1.096,1.828 2.315,1.828l7.713 0c1.561,0 2.827,0.324 3.795,0.971 0.969,0.648 1.666,1.543 2.092,2.685 0.425,1.143 0.579,2.505 0.461,4.085 -0.118,1.581 -0.482,3.304 -1.094,5.171 -0.661,2.018 -1.494,3.894 -2.5,5.627 -1.006,1.733 -2.12,3.247 -3.344,4.542 -1.224,1.295 -2.511,2.314 -3.858,3.057 -1.348,0.742 -2.688,1.114 -4.021,1.114l-19.083 0 1.853 -5.656 15.369 0c0.685,0 1.36,-0.2 2.024,-0.6 0.664,-0.4 1.299,-0.943 1.905,-1.628 0.605,-0.686 1.156,-1.495 1.652,-2.428 0.496,-0.934 0.919,-1.933 1.268,-3 0.412,-1.257 0.656,-2.323 0.734,-3.199 0.077,-0.876 -0.057,-1.571 -0.403,-2.086 -0.345,-0.514 -0.9,-0.885 -1.663,-1.114 -0.763,-0.228 -1.792,-0.342 -3.087,-0.342l-4.97 0c-1.562,0 -2.849,-0.315 -3.862,-0.943 -1.013,-0.629 -1.745,-1.505 -2.196,-2.628 -0.451,-1.124 -0.63,-2.466 -0.537,-4.028 0.092,-1.562 0.45,-3.295 1.074,-5.199 0.599,-1.828 1.373,-3.552 2.322,-5.17 0.949,-1.619 2.001,-3.028 3.156,-4.228 1.155,-1.2 2.39,-2.152 3.707,-2.857 1.316,-0.704 2.641,-1.057 3.974,-1.057l18.739 0z"/>
   <path id="_9" class="fil6" d="M413.097 23.526l-7.972 24.339 0.571 0 15.295 -12.684 9.256 0 -19.9 16.797 9.275 19.825 -10.284 0 -6.563 -15.369 -0.457 0 -5.034 15.369 -8.97 0 15.813 -48.277 8.97 0z"/>
   <path id="_10" class="fil6" d="M456.53 23.526l-13.961 42.621 10.17 0 -1.853 5.656 -28.965 0 1.852 -5.656 9.941 0 12.071 -36.85 -9.941 0 1.89 -5.771 18.796 0z"/>
   <path id="_11" class="fil6" d="M486.605 35.181c1.751,0 3.171,0.172 4.259,0.514 1.087,0.343 1.872,0.943 2.353,1.8 0.481,0.857 0.652,2.019 0.515,3.485 -0.138,1.467 -0.568,3.304 -1.292,5.513l-8.29 25.31 -22.281 0c-1.219,0 -2.24,-0.286 -3.062,-0.857 -0.822,-0.571 -1.439,-1.362 -1.851,-2.371 -0.412,-1.009 -0.591,-2.209 -0.535,-3.599 0.055,-1.391 0.351,-2.905 0.888,-4.542 0.524,-1.6 1.216,-3.105 2.078,-4.514 0.861,-1.409 1.835,-2.637 2.921,-3.685 1.086,-1.047 2.23,-1.866 3.433,-2.457 1.202,-0.59 2.413,-0.885 3.632,-0.885l13.426 0 1.029 -3.142c0.624,-1.905 0.785,-3.181 0.483,-3.828 -0.302,-0.648 -1.082,-0.971 -2.339,-0.971l-13.654 0 1.89 -5.771 16.397 0zm-12.839 19.311c-1.181,0 -2.183,0.095 -3.007,0.285 -0.824,0.191 -1.527,0.505 -2.108,0.943 -0.582,0.438 -1.071,1 -1.467,1.686 -0.396,0.685 -0.756,1.523 -1.08,2.513 -1.36,4.152 -1.278,6.228 0.245,6.228l10.741 0 3.818 -11.655 -7.142 0z"/>
   <path id="_12" class="fil6" d="M531.913 23.526l-15.813 48.277 -19.996 0c-1.676,0 -3.036,-0.238 -4.08,-0.714 -1.044,-0.476 -1.778,-1.229 -2.203,-2.257 -0.425,-1.028 -0.553,-2.352 -0.385,-3.971 0.169,-1.618 0.627,-3.571 1.376,-5.856l3.611 -11.026c0.749,-2.285 1.569,-4.237 2.461,-5.856 0.892,-1.619 1.888,-2.943 2.986,-3.971 1.099,-1.028 2.326,-1.78 3.682,-2.257 1.356,-0.476 2.871,-0.714 4.547,-0.714l11.141 0 3.818 -11.655 8.855 0zm-31.388 32.337c-0.749,2.285 -1.249,4.104 -1.502,5.456 -0.252,1.352 -0.259,2.39 -0.02,3.114 0.239,0.724 0.744,1.19 1.513,1.4 0.769,0.209 1.801,0.314 3.096,0.314l5.485 0 8.253 -25.195 -8.341 0c-0.648,0 -1.228,0.085 -1.742,0.257 -0.513,0.171 -0.99,0.495 -1.432,0.971 -0.441,0.476 -0.86,1.114 -1.255,1.914 -0.395,0.8 -0.799,1.828 -1.211,3.085l-2.844 8.684z"/>
  </g>
 </g>
</svg>
